<?xml version="1.0" encoding="utf-8"?>
<!-- Generator: Adobe Illustrator 16.0.0, SVG Export Plug-In . SVG Version: 6.00 Build 0)  -->
<!DOCTYPE svg PUBLIC "-//W3C//DTD SVG 1.1//EN" "http://www.w3.org/Graphics/SVG/1.1/DTD/svg11.dtd">
<svg version="1.1" id="图层_1" xmlns="http://www.w3.org/2000/svg" xmlns:xlink="http://www.w3.org/1999/xlink" x="0px" y="0px"
	 width="24px" height="28px" viewBox="0 0 24 28" enable-background="new 0 0 24 28" xml:space="preserve">
<g>
	<path fill="#FFFFFF" d="M7,0H1C0.448,0,0,0.447,0,1v26c0,0.553,0.448,1,1,1h6c0.553,0,1-0.447,1-1V1C8,0.447,7.553,0,7,0z M23,0h-6
		c-0.553,0-1,0.447-1,1v26c0,0.553,0.447,1,1,1h6c0.553,0,1-0.447,1-1V1C24,0.447,23.553,0,23,0z"/>
</g>
</svg>
